PathFileType	4	(X/Y/Z)	/home/abdul/Desktop/myosuite/custom_workspace/IK/output/S3_12_1.trc
DataRate	CameraRate	NumFrames	NumMarkers	Units	OrigDataRate	OrigDataStartFrame	OrigNumFrames
200.0	200.0	22	3	mm	200.0	295	786
Frame#	Time	V_Shoulder			V_Elbow			V_Wrist		
		X1	Y1	Z1	X2	Y2	Z2	X3	Y3	Z3

295	1.47	-117.35188659813456	640.3158278655014	323.6510500443235	-332.1993505183226	441.7717359351518	104.14410939293208	-98.5012876007063	301.29262357940604	227.6273899419184
296	1.475	-117.36318153513643	640.7578344426104	323.66101739121586	-332.43694037938815	441.8497472138267	104.73993991347339	-98.69746269879676	302.6664725274733	229.64796079312111
297	1.48	-117.37426592969071	641.1922778111327	323.67147752912865	-332.6729433897847	441.9224306032088	105.33594263627663	-98.89845080920571	304.0317242223728	231.63306537269858
298	1.485	-117.38512513031408	641.6190529449495	323.68243024834396	-332.9075565891051	441.9898591179077	105.93219900764379	-99.10392024251102	305.38876396649596	233.58261935887668
299	1.49	-117.395745794046	642.0380690261688	323.6938749375419	-333.1409697731207	442.0521094521916	106.52878824417385	-99.3135312341967	306.738003908754	235.49659776653957
300	1.495	-117.40611592024993	642.4492494339515	323.70581056243236	-333.3733646153227	442.1092616344638	107.12578660495808	-99.52693696263222	308.07988001848605	237.37503328295298
301	1.5	-117.41622488121624	642.8525317035474	323.7182356437085	-333.6049138377161	442.1613986945887	107.72326668240581	-99.74378459515509	309.4148489520717	239.21801447888055
302	1.505	-117.4260634493848	643.2478674557001	323.7311482346438	-333.8357804342153	442.2086063452663	108.3212967152194	-99.9637163581481	310.7433848247605	241.02568390315338
303	1.51	-117.4356238210136	643.6352222966641	323.74454589865314	-334.0661169497391	442.25097267858484	108.91993992686677	-100.18637062688845	312.06597590078235	242.79823606898884
304	1.515	-117.4448996361293	644.0145756891324	323.7584256871374	-334.2960648178319	442.28858787879653	109.51925389271226	-100.41138303085233	313.3831212153039	244.53591534055766
305	1.52	-117.45388599460576	644.3859207944603	323.7727841179258	-334.52575375935885	442.3215439522784	110.11928993876617	-100.6383875700825	314.6953271422481	246.23901372846774
306	1.525	-117.46257946822821	644.7492642866324	323.7876171546245	-334.75530124453076	442.349934475546	110.72009257479866	-100.86701773817191	316.0031039223921	247.90786860296961
307	1.53	-117.47097810861216	645.1046261384898	323.802920187168	-334.9848120202138	442.373854362092	111.32169896433828	-101.0969076473823	317.3069621664948	249.54286033379344
308	1.535	-117.47908145085965	645.4520393808069	323.8186880138631	-335.2143777041671	442.3933996487133	111.92413843384105	-101.32769315140412	318.6074093484888	251.1444098655993
309	1.54	-117.48689051284873	645.7915498348688	323.83491482519713	-335.4440764475379	442.4086673018822	112.52743202307241	-101.55901296127215	319.9049463039835	252.71297623806436
310	1.545	-117.4944077900672	646.1232158192673	323.85159418967083	-335.67397266662135	442.4197550446053	113.13159207849588	-101.79050974998188	321.2000637494839	254.24905405964088
311	1.55	-117.50163724591543	646.4471078317011	323.86871904189593	-335.90411684456456	442.42676120409016	113.73662189120941	-102.02183124140285	322.4932388378104	255.75317094400148
312	1.555	-117.50858429742055	646.7633082066178	323.8862816731815	-336.1345454033702	442.4297845804197	114.3425153807137	-102.25263127915835	323.78493176522556	257.22588491813895
313	1.56	-117.51525579631873	647.0719107496058	323.9042737248096	-336.3652806462244	442.42892433630857	114.9492568255406	-102.4825708712334	325.0755824457224	258.66778181101404
314	1.565	-117.52166000548067	647.3730203494935	323.92268618418234	-336.59633076984557	442.4242799078837	115.55682064151222	-102.71131920618782	326.36560726780544	260.07947263154097
315	1.57	-117.52780657067161	647.6667525691727	323.9415093839954	-336.82768994622853	442.41595093630485	116.16517120814828	-102.93855463698272	327.6553959489058	261.46159094457084
316	1.575	-117.53370648765504	647.9532332162134	323.96073300457465	-337.0593384728349	442.40403721990464	116.77426274348693	-103.16396562858142	328.9453085023068	262.81479025337933
